<svg id="Layer_1" data-name="Layer 1" xmlns="http://www.w3.org/2000/svg" viewBox="0 0 113.8 28.8"><defs><style>.cls-1{fill:#818281;}</style></defs><title>loc logo sized for footer on CDG-01</title><path class="cls-1" d="M5.24.36l0,23.51h3l0,4.43H.5V.36Z"/><path class="cls-1" d="M14.11,28.28H9.34V.36h4.77Z"/><path class="cls-1" d="M15.31.36h7.21c1.91,0,3.16,1,3.16,3.54v6.31a2.94,2.94,0,0,1-1.84,2.92,3.13,3.13,0,0,1,2.21,3.27v7.66c0,2.82-1.2,4.24-3.56,4.24H15.31Zm4.77,3.52v8h.34c.37,0,.56-.22.56-.71V4.56c0-.49-.07-.68-.56-.68Zm0,11.42v9.35h.46c.49,0,.56-.22.56-.71V16.06c0-.56-.12-.75-.56-.75h-.46Z"/><path class="cls-1" d="M31.87,28.28H27.1V.36h7.39c1.66,0,3,1,3,3.35v6.58a2.89,2.89,0,0,1-1.69,3,2.75,2.75,0,0,1,1.76,2.59V27a2.59,2.59,0,0,0,.22,1.24v.12H33a2,2,0,0,1-.31-1.17V16.68c0-.4-.06-.64-.52-.64h-.37V28.28Zm0-16.25h.37c.34,0,.53-.22.53-.64V4.52c0-.45-.07-.64-.49-.64h-.41V12Z"/><path class="cls-1" d="M44.45,23.26h-1.6l-.27,5h-4.1L40.8.36h6L49.32,28.3H44.71ZM43.66,8.55,43.1,19.17h1.13Z"/><path class="cls-1" d="M55,28.28H50.27V.36h7.41c1.66,0,3,1,3,3.35v6.58a2.9,2.9,0,0,1-1.69,3,2.76,2.76,0,0,1,1.76,2.59V27a2.61,2.61,0,0,0,.21,1.24v.12h-4.7a2,2,0,0,1-.3-1.17V16.68c0-.4-.07-.64-.53-.64H55V28.28ZM55,12h.37c.34,0,.53-.22.53-.64V4.52c0-.45-.07-.64-.49-.64H55V12Z"/><path class="cls-1" d="M64.14,17.29,61.06.36H65.8L66.62,10,67.44.36h4.24L68.86,17.29v11H64.12v-11Z"/><path class="cls-1" d="M71.05,22.89v-4.6h1.21v3.45h1.92v1.15Z"/><path class="cls-1" d="M74.67,22.89v-4.6h1.2v4.6Z"/><path class="cls-1" d="M76.57,22.89v-4.6h1.79c1.25,0,1.79.42,1.79,1.2a1.07,1.07,0,0,1-.55,1.05,1,1,0,0,1,.67,1c0,.86-.54,1.34-1.71,1.34h-2Zm1.15-3.69v.88h.69c.41,0,.61-.13.61-.45s-.17-.43-.61-.43Zm0,1.78v.91h.62c.56,0,.73-.15.73-.46s-.19-.45-.73-.45Z"/><path class="cls-1" d="M81.88,21.35v1.54H80.73v-4.6h1.86c1.3,0,1.81.57,1.81,1.44a1.16,1.16,0,0,1-.66,1.15c.37.15.56.47.56,1.05v.72a.3.3,0,0,0,.1.26H83.2a.33.33,0,0,1-.1-.27V22c0-.46-.17-.59-.65-.59h-.57Zm0-2.08v1.07h.67c.43,0,.65-.21.65-.55s-.19-.52-.65-.52Z"/><path class="cls-1" d="M87.54,22.08H86l-.25.81H84.57l1.6-4.6h1.2L89,22.89H87.81Zm-.77-2.45-.46,1.5h.93Z"/><path class="cls-1" d="M90.47,21.35v1.54H89.3v-4.6h1.86c1.3,0,1.81.57,1.81,1.44a1.14,1.14,0,0,1-.66,1.15c.37.15.56.47.56,1.05v.72a.3.3,0,0,0,.1.26h-1.2a.33.33,0,0,1-.1-.27V22c0-.46-.17-.59-.64-.59h-.56Zm0-2.08v1.07h.68c.42,0,.64-.21.64-.55s-.19-.52-.64-.52Z"/><path class="cls-1" d="M94.56,22.89V21.1l-1.42-2.81h1.25l.8,1.66L96,18.29h1.23l-1.47,2.84v1.78H94.56Z"/><path class="cls-1" d="M70.92,26.25v-.49a2,2,0,1,1,4,0v.49a1.88,1.88,0,0,1-2,2.15C71.65,28.4,70.92,27.73,70.92,26.25Zm2.76-.06v-.38c0-.77-.24-1.16-.76-1.16s-.77.4-.77,1.15v.37c0,.76.22,1.15.77,1.15S73.68,27,73.68,26.19Z"/><path class="cls-1" d="M76.6,26.68V28.3H75.45V23.7h3.11v1.05h-2v.9h1.88v1H76.6Z"/><path class="cls-1" d="M80.24,26.32v-.59a1.88,1.88,0,0,1,2-2.13,1.75,1.75,0,0,1,2,1.79v.14H83v-.07c0-.54-.23-.81-.72-.81s-.78.37-.78,1.15v.4c0,.75.25,1.1.78,1.1S83,27,83,26.46v-.09h1.25v.12a1.78,1.78,0,0,1-2,1.9C80.93,28.4,80.24,27.73,80.24,26.32Z"/><path class="cls-1" d="M84.6,26.25v-.49a2,2,0,1,1,4,0v.49a1.88,1.88,0,0,1-2,2.15C85.33,28.4,84.6,27.73,84.6,26.25Zm2.76-.06v-.38c0-.77-.24-1.16-.76-1.16s-.76.4-.76,1.15v.37c0,.76.22,1.15.76,1.15S87.36,27,87.36,26.19Z"/><path class="cls-1" d="M90.23,25.54V28.3h-1.1V23.7h1.1l1.69,2.72V23.7H93v4.6H92Z"/><path class="cls-1" d="M96.42,27.24a1.22,1.22,0,0,1-1.28,1.16c-1.07,0-1.56-.64-1.56-2.11v-.56a1.87,1.87,0,0,1,2-2.13,1.63,1.63,0,0,1,1.86,1.74v0h-1.2c0-.46-.2-.73-.69-.73s-.8.35-.8,1.13v.46c0,.84.24,1.13.78,1.13a.72.72,0,0,0,.73-.73h-.81v-.79h2v2.47h-.93Z"/><path class="cls-1" d="M99.23,26.76V28.3H98.08V23.7h1.86c1.3,0,1.81.58,1.81,1.44a1.15,1.15,0,0,1-.66,1.15c.37.15.56.47.56,1.05v.72a.3.3,0,0,0,.1.26h-1.2a.32.32,0,0,1-.1-.27v-.68c0-.46-.17-.59-.65-.59h-.57Zm0-2.08v1.07h.68c.42,0,.64-.21.64-.54s-.19-.53-.64-.53Z"/><path class="cls-1" d="M105.59,28.3h-3.3V23.7h3.23v1h-2.08v.78h1.88v1h-1.88v.78h2.15Z"/><path class="cls-1" d="M105.84,26.71h1.24v0c0,.44.22.67.72.67s.61-.2.61-.45-.47-.44-1-.56c-.69-.15-1.47-.37-1.47-1.37,0-.81.6-1.4,1.76-1.4s1.79.54,1.79,1.5h-1.18c0-.39-.2-.56-.64-.56s-.56.19-.56.43.44.4,1,.52c.7.15,1.49.39,1.51,1.4s-.63,1.51-1.83,1.51C106.33,28.4,105.86,27.79,105.84,26.71Z"/><path class="cls-1" d="M109.78,26.71H111v0c0,.44.22.67.72.67s.61-.2.61-.45-.47-.44-1-.56c-.7-.15-1.48-.37-1.48-1.37,0-.81.6-1.4,1.76-1.4s1.8.54,1.8,1.5h-1.19c0-.39-.2-.56-.64-.56s-.56.19-.56.43.44.4,1,.52c.7.15,1.49.39,1.51,1.4s-.63,1.51-1.83,1.51C110.27,28.4,109.8,27.79,109.78,26.71Z"/></svg>