<?xml version="1.0" encoding="utf-8"?>
<!-- Generator: Adobe Illustrator 22.1.0, SVG Export Plug-In . SVG Version: 6.00 Build 0)  -->
<svg version="1.1" id="Layer_1" xmlns="http://www.w3.org/2000/svg" xmlns:xlink="http://www.w3.org/1999/xlink" x="0px" y="0px"
	 viewBox="0 0 166.8 23.8" style="enable-background:new 0 0 166.8 23.8;" xml:space="preserve">
<style type="text/css">
	.st0{fill:#818281;}
</style>
<path id="d195b6d9-269b-4825-8744-69cff609bd23" class="st0" d="M19.3,10.6h-3.9c0,0.2,0,0.4,0,0.7c0,1.2-0.5,2.1-1.7,2.1
	c-1.1,0-2.1-1.1-2.1-3.3C11.6,8,12.6,7,13.4,7c0.8,0,1.1,0.7,1.1,1.6c0,0.2,0,0.4-0.1,0.6h4.2c-0.3-3.4-2.3-5.3-5.6-5.3
	c-3.5,0-6.5,2.3-6.5,6.3c0,3.7,2.5,6.1,6.2,6.1c3.4,0,5.2-1.8,5.9-3.5l0.2,0.1c-1.5,5-6.8,7.8-11.8,6.3s-7.8-6.8-6.3-11.8
	s6.8-7.8,11.8-6.3c3.9,1.2,6.6,4.7,6.7,8.8C19.3,10.1,19.3,10.4,19.3,10.6z M25.8,15.7c-3,0-5.6-2.2-5.6-5.3c0-3,2.4-5.4,5.4-5.4
	c0,0,0.1,0,0.1,0c3.3,0,5.6,2,5.6,5.4C31.3,13.5,28.8,15.7,25.8,15.7z M25.8,7.5c-1.4,0-1.5,1.8-1.5,2.8c0,1.1,0.1,2.8,1.5,2.8
	c1.3,0,1.4-1.8,1.4-2.8C27.2,9.3,27.2,7.5,25.8,7.5L25.8,7.5z M39.3,15.5c-1.1,0.1-2.1-0.4-2.6-1.4l-0.1,0l0,1.9h1.7v2.7h-7V16H33V8
	h-1.4V5.2h5l0,1.5l0.1,0c0.6-1.1,1.7-1.8,2.9-1.7c3,0,4.1,2.8,4.1,5.5C43.7,13.6,41.9,15.5,39.3,15.5L39.3,15.5z M38.1,7.8
	c-1.3,0-1.5,1.7-1.5,2.6c0,1,0.2,2.6,1.5,2.6c1.4,0,1.5-1.4,1.5-2.6C39.6,9.2,39.3,7.8,38.1,7.8z M65.8,9.5h-3.5
	c0.1-0.2,0.1-0.4,0.1-0.6c0-0.5-0.3-0.9-0.8-0.9c0,0-0.1,0-0.1,0c-0.6,0-1.1,0.5-1.1,1.6c0,1.4,0,3.1,0,3.1h1.6v2.8h-6.6v-2.8h1.4V8
	h-2.2l-2.8,6.4c-1.1,2.5-2,4.4-4.4,4.4c-1.7,0.1-3.1-1.1-3.2-2.8c0,0,0,0,0-0.1h3.2c0,0.1-0.1,0.3-0.1,0.4c0,0.3,0.2,0.6,0.5,0.6
	c0,0,0,0,0,0c0.3,0,0.6-0.3,0.6-0.6c0,0,0,0,0-0.1c0-0.6-0.4-1.6-1-2.7L45.1,8h-1.1V5.2h6.4V8h-1.6c0.6,1.6,1.6,3.9,1.6,3.9h0
	c0,0,1-2.3,1.6-3.9H51V5.2h9.4l0,1.9l0,0C60.7,5.9,61.9,5,63.3,5C65.4,5,66,6.7,66,8.2C66,8.6,65.9,9.1,65.8,9.5z M66.2,15.4v-2.8
	h1.4V8h-1.2V5.2h4.9v7.4h1.4v2.8L66.2,15.4z M67.5,4.5V1.7h3.7v2.8H67.5z M84.8,6.9h-2c0-0.1,0.1-0.2,0.1-0.4c0-0.4-0.2-0.5-0.4-0.5
	c-0.2,0-0.3,0.1-0.3,0.3c0.4,0.5,0.6,1.2,0.6,1.8c0,2.6-2.5,2.9-4.6,2.9c-0.6,0-1.2-0.1-1.8-0.2c-0.3,0-0.5,0.3-0.5,0.6
	c0,0.4,0.4,0.5,0.8,0.5c1.1,0,2.3-0.2,3.5-0.2c2,0,3.7,0.8,3.7,3c0,3.3-3.7,3.9-6.5,3.9c-2.6,0-4.4-0.6-4.4-2.2c0-0.9,1-1.5,2-1.7v0
	c-1.2-0.2-2.1-0.7-2.1-2c0-1.4,1.1-1.9,2.4-2v0c-1-0.4-1.7-1.3-1.6-2.4c0-2.5,2.6-3.3,4.7-3.3c1.2-0.1,2.4,0.3,3.4,1
	c0.1-0.8,0.8-1.4,1.7-1.3c0.8,0,1.5,0.6,1.5,1.4c0,0.1,0,0.2,0,0.2C84.9,6.5,84.9,6.7,84.8,6.9z M77.4,14.8
	c-0.4,0.2-0.6,0.5-0.6,0.9c0,0.5,0.4,1.1,1.7,1.1c1.4,0,2-0.6,2-1.1C80.5,15,79.6,14.8,77.4,14.8z M78.3,6.6c-0.6,0-0.9,0.8-0.9,1.6
	c0,0.8,0.2,1.5,0.9,1.5c0.6,0,0.9-0.8,0.9-1.6C79.2,7.3,78.9,6.6,78.3,6.6L78.3,6.6z M91,15.4v-2.8h1c0,0,0-1.9,0-3.2
	c0-0.8-0.3-1.5-1.2-1.5c-1,0-1.5,0.8-1.5,1.8v3h1v2.8h-6v-2.8h1.4V4.4h-1.4V1.6h5V7l0,0C90,5.7,91.3,4.9,92.7,5c2.1,0,3,1.5,3,3.3
	c0,1.3,0,4.3,0,4.3h1.4v2.8L91,15.4z M86.7,22.1c-1.3,0-1.7-0.7-1.7-1.4v-2.5h1v2.5c0,0.5,0.2,0.7,0.8,0.7c0.5,0,0.7-0.2,0.7-0.8
	v-2.4h1v2.4C88.5,21.6,87.8,22.1,86.7,22.1L86.7,22.1z M91.2,22v-1.8c0-0.2,0-0.4-0.3-0.4c-0.3,0-0.6,0.4-0.6,0.8V22h-0.9v-2.2
	c-0.2,0-0.4,0-0.6,0v-0.6c0.5-0.1,0.9-0.1,1.4,0c0,0.1,0,0.3,0,0.4c0.2-0.3,0.6-0.5,1-0.5c0.5-0.1,0.9,0.3,0.9,0.7
	c0,0.1,0,0.1,0,0.2v2L91.2,22z M93,22v-2.2c-0.2,0-0.4,0-0.5,0v-0.6c0.5-0.1,1-0.1,1.5,0V22L93,22z M93.5,18.9
	c-0.3,0-0.5-0.2-0.6-0.4c0-0.3,0.2-0.5,0.4-0.6c0,0,0.1,0,0.1,0c0.3,0,0.5,0.2,0.6,0.4s-0.2,0.5-0.4,0.6
	C93.6,18.9,93.6,18.9,93.5,18.9z M95.8,22.1c-0.7,0-0.9-0.2-0.9-0.9v-1.3h-0.5v-0.7h0.5v-0.8l0.9-0.2v1.1h0.7v0.7h-0.7V21
	c0,0.3,0.1,0.4,0.3,0.4c0.1,0,0.2,0,0.4,0V22C96.2,22,96,22.1,95.8,22.1L95.8,22.1z M99.6,20.8h-1.8c0,0.4,0.3,0.6,0.8,0.6
	c0.3,0,0.6-0.1,0.9-0.2l0.1,0.7c-0.4,0.1-0.8,0.2-1.1,0.2c-1,0-1.6-0.5-1.6-1.5c-0.1-0.8,0.5-1.4,1.3-1.5c0.1,0,0.1,0,0.2,0
	c0.7-0.1,1.3,0.4,1.3,1.1c0,0.1,0,0.2,0,0.2C99.6,20.5,99.6,20.7,99.6,20.8L99.6,20.8z M102.5,15.7c-2.6,0-3.8-1.2-3.8-3.7
	c0-1.2,0-3.2,0-3.9h-1.8V5.3c2.6-0.1,3-0.4,3.1-2.8h2.4v2.8h3V8h-3c0,0-0.1,2.4-0.1,4.4c0,1.1,0.3,1.3,0.7,1.3
	c0.3,0,0.7-0.2,0.7-0.9c0-0.3,0-0.5-0.1-0.8h2.1c0.1,0.3,0.1,0.6,0.1,0.9C105.7,14.8,104.3,15.7,102.5,15.7L102.5,15.7z M98.2,19.7
	c-0.3,0-0.5,0.2-0.5,0.5h0.9C98.7,20,98.5,19.8,98.2,19.7C98.3,19.7,98.3,19.7,98.2,19.7L98.2,19.7z M102,22c0-0.1,0-0.3,0-0.4
	c-0.2,0.3-0.6,0.5-0.9,0.5c-0.7,0-1.1-0.5-1.1-1.3c-0.1-0.9,0.6-1.6,1.5-1.7c0.1,0,0.1,0,0.2,0c0.1,0,0.2,0,0.3,0v-0.6
	c-0.2,0-0.4,0-0.5,0v-0.6c0.5,0,1-0.1,1.5-0.1v3.5c0.2,0,0.4,0,0.6,0.1V22C102.9,22,102.4,22,102,22L102,22z M101.9,19.8
	c-0.1,0-0.2,0-0.3,0c-0.4,0-0.6,0.2-0.6,0.9c0,0.5,0.1,0.7,0.4,0.7c0.3,0,0.5-0.4,0.5-0.8L101.9,19.8z M105.8,22.1
	c-0.3,0-0.6,0-0.9-0.1l0-0.8c0.3,0.1,0.6,0.1,0.9,0.1c0.4,0,0.6-0.1,0.6-0.4c0-0.7-1.7-0.3-1.7-1.6c0-0.7,0.6-1.2,1.7-1.2
	c0.3,0,0.5,0,0.7,0.1l0,0.8c-0.2-0.1-0.5-0.1-0.7-0.1c-0.4,0-0.6,0.2-0.6,0.4c0,0.6,1.7,0.4,1.7,1.6
	C107.5,21.5,106.9,22.1,105.8,22.1L105.8,22.1z M109.2,22.1c-0.7,0-0.9-0.2-0.9-0.9v-1.3h-0.5v-0.7h0.5v-0.8l0.9-0.2v1.1h0.7v0.7
	h-0.7V21c0,0.3,0.1,0.4,0.3,0.4c0.1,0,0.2,0,0.4,0V22C109.6,22,109.4,22.1,109.2,22.1L109.2,22.1z M112,22c0-0.1,0-0.3,0-0.4
	c-0.2,0.3-0.6,0.5-1,0.5c-0.4,0.1-0.8-0.2-0.9-0.7c0,0,0-0.1,0-0.1c0-0.7,0.7-1.1,1.7-1.1v-0.1c0-0.2-0.1-0.4-0.6-0.4
	c-0.3,0-0.6,0.1-0.9,0.2l-0.1-0.7c0.4-0.1,0.7-0.2,1.1-0.2c1.1,0,1.4,0.4,1.4,1v1.2c0.1,0,0.4,0,0.5,0.1V22
	C112.9,22,112.5,22,112,22L112,22z M111.9,20.8c-0.7,0-0.8,0.2-0.8,0.4c0,0.1,0.1,0.2,0.3,0.2c0.3,0,0.5-0.2,0.5-0.5
	C111.9,20.9,111.9,20.9,111.9,20.8L111.9,20.8z M114.8,22.1c-0.7,0-1-0.2-1-0.9v-1.3h-0.5v-0.7h0.5v-0.8l1-0.2v1.1h0.7v0.7h-0.7V21
	c0,0.3,0.1,0.4,0.3,0.4c0.1,0,0.2,0,0.3,0V22C115.3,22,115,22.1,114.8,22.1L114.8,22.1z M118.6,20.8h-1.8c0,0.4,0.3,0.6,0.7,0.6
	c0.3,0,0.6-0.1,0.9-0.2l0.1,0.7c-0.4,0.1-0.8,0.2-1.1,0.2c-1,0-1.6-0.5-1.6-1.5c-0.1-0.8,0.5-1.4,1.3-1.5c0.1,0,0.1,0,0.2,0
	c0.7-0.1,1.3,0.4,1.4,1.1c0,0.1,0,0.2,0,0.2C118.6,20.5,118.6,20.7,118.6,20.8L118.6,20.8z M117.3,19.7c-0.3,0-0.5,0.2-0.5,0.5h0.9
	C117.7,20,117.6,19.8,117.3,19.7C117.3,19.7,117.3,19.7,117.3,19.7L117.3,19.7z M119.7,22.1c-0.2,0-0.4,0-0.6,0v-0.7
	c0.2,0.1,0.4,0.1,0.7,0.1c0.2,0,0.4-0.1,0.4-0.2c0-0.4-1.1-0.2-1.1-1.1c0-0.5,0.5-1,1.4-1c0.2,0,0.4,0,0.5,0l0,0.7
	c-0.2,0-0.4-0.1-0.5-0.1c-0.3,0-0.4,0.1-0.4,0.2c0,0.4,1.2,0.3,1.2,1.1C121.1,21.7,120.6,22.1,119.7,22.1L119.7,22.1z M124.7,22.1
	c-1.6,0-2-1-2-1.8c-0.1-1.1,0.7-2,1.8-2.1c0.1,0,0.2,0,0.3,0c0.3,0,0.6,0,0.9,0.1l-0.1,0.8c-0.3-0.1-0.5-0.1-0.8-0.1
	c-0.6,0-1.1,0.4-1.1,1c0,0,0,0.1,0,0.1c-0.1,0.6,0.3,1.1,0.9,1.2c0.1,0,0.2,0,0.3,0c0.3,0,0.5,0,0.8-0.1l0.1,0.8
	C125.5,22,125.1,22.1,124.7,22.1L124.7,22.1z M127.6,22.1c-0.9,0-1.5-0.4-1.5-1.4c0-0.8,0.7-1.6,1.5-1.6c0,0,0.1,0,0.1,0
	c0.7-0.1,1.4,0.4,1.5,1.1c0,0.1,0,0.2,0,0.3c0,0.8-0.7,1.5-1.5,1.6C127.7,22.1,127.6,22.1,127.6,22.1L127.6,22.1z M127.7,19.8
	c-0.3,0-0.6,0.2-0.6,0.7c0,0.5,0.2,0.7,0.6,0.7c0.3,0,0.6-0.3,0.6-0.7C128.2,20.1,128.1,19.8,127.7,19.8L127.7,19.8z M131.2,22.1
	c-0.1,0-0.2,0-0.3,0v1.3h-0.9v-3.5c-0.2,0-0.4,0-0.6,0v-0.6c0.5-0.1,0.9-0.1,1.4,0c0,0.1,0,0.3,0,0.4c0.2-0.3,0.6-0.5,0.9-0.5
	c0.7,0,1.1,0.5,1.1,1.3c0.1,0.8-0.5,1.5-1.3,1.6C131.4,22.1,131.3,22.1,131.2,22.1L131.2,22.1z M131.4,19.8c-0.3,0-0.5,0.4-0.5,0.8
	v0.7c0.1,0,0.2,0,0.3,0c0.4,0,0.7-0.2,0.7-0.9C131.8,20,131.7,19.8,131.4,19.8L131.4,19.8z M134.9,22.2c-0.4,0.9-0.7,1.2-1.4,1.2
	c-0.2,0-0.3,0-0.5,0l0-0.7c0.1,0,0.3,0.1,0.4,0.1c0.2,0,0.4-0.1,0.5-0.4l0.1-0.2l-1.1-2.8h1.1l0.3,0.8c0.1,0.3,0.2,0.6,0.3,0.8
	c0.1-0.3,0.2-0.6,0.3-0.9l0.3-0.7h1L134.9,22.2z M138.5,20c-0.5-0.1-0.8,0.2-0.8,0.9V22h-1v-2.2c-0.2,0-0.4,0-0.5,0v-0.6
	c0.5-0.1,0.9-0.1,1.4,0c0,0.2,0,0.3,0,0.5c0.2-0.4,0.5-0.6,0.9-0.6L138.5,20z M139.2,22v-2.2c-0.2,0-0.4,0-0.5,0v-0.6
	c0.5-0.1,1-0.1,1.5,0V22L139.2,22z M139.7,18.9c-0.3,0-0.5-0.2-0.6-0.5c0-0.3,0.2-0.5,0.5-0.6c0,0,0.1,0,0.1,0
	c0.3,0,0.5,0.2,0.6,0.4c0,0.3-0.2,0.5-0.4,0.6C139.7,18.9,139.7,18.9,139.7,18.9z M141.8,23.4c-0.3,0-0.6,0-1-0.1l0.1-0.8
	c0.3,0.1,0.6,0.2,0.9,0.2c0.5,0,0.8-0.2,0.8-0.6V22c0-0.1,0-0.2,0-0.4c-0.2,0.3-0.5,0.5-0.8,0.4c-0.7,0-1.2-0.5-1.2-1.3
	c0-0.9,0.6-1.6,1.5-1.7c0.1,0,0.1,0,0.2,0c0.4,0,0.8,0,1.2,0.1V22C143.5,22.8,143.2,23.4,141.8,23.4L141.8,23.4z M142.6,19.8
	c-0.1,0-0.2,0-0.3,0c-0.4,0-0.7,0.2-0.7,0.9c0,0.5,0.1,0.7,0.4,0.7c0.3,0,0.6-0.3,0.6-0.8L142.6,19.8z M146.1,22v-1.8
	c0-0.2-0.1-0.4-0.3-0.4c-0.4,0.1-0.7,0.4-0.6,0.8V22h-0.9v-3.5c-0.2,0-0.4,0-0.5,0v-0.6c0.5,0,1-0.1,1.5-0.1V19c0,0.2,0,0.4,0,0.6
	c0.2-0.3,0.6-0.5,1-0.5c0.4-0.1,0.9,0.3,0.9,0.7c0,0.1,0,0.1,0,0.2v2L146.1,22z M148.7,22.1c-0.7,0-0.9-0.2-0.9-0.9v-1.3h-0.5v-0.7
	h0.5v-0.8l0.9-0.2v1.1h0.7v0.7h-0.7V21c0,0.3,0.1,0.4,0.3,0.4c0.1,0,0.2,0,0.4,0V22C149.2,22,149,22.1,148.7,22.1L148.7,22.1z
	 M153,22.1c-1.3,0-1.9-0.7-1.9-2c0-1.1,0.8-2,1.9-2.1c0.1,0,0.1,0,0.2,0c1-0.1,1.8,0.6,1.9,1.6c0,0.1,0,0.2,0,0.4
	c0,1.1-0.8,2-1.9,2.1C153.1,22.1,153,22.1,153,22.1L153,22.1z M153.1,18.9c-0.5,0-1,0.4-1,1.2c0,0.7,0.3,1.2,1,1.2
	c0.5,0,1-0.3,1-1.2C154,19.3,153.7,18.9,153.1,18.9L153.1,18.9z M159.6,22v-2.2h-0.9V22h-0.9v-2.2h-1V22h-1v-2.2h-0.5v-0.7h0.5v-0.3
	c0-0.7,0.4-1.1,1.3-1.1c0.2,0,0.3,0,0.5,0l-0.1,0.7c-0.1,0-0.2-0.1-0.4,0c-0.3,0-0.4,0.1-0.4,0.4v0.3h1v-0.1c0-0.9,0.5-1.3,1.6-1.3
	c0.3,0,0.7,0,1,0.1l-0.2,0.7c-0.2-0.1-0.5-0.1-0.7-0.1c-0.5,0-0.7,0.2-0.7,0.5v0.1h1.9V22L159.6,22z M162.5,22.1
	c-0.9,0-1.5-0.5-1.5-1.4c0-0.8,0.6-1.6,1.5-1.6c0.1,0,0.1,0,0.2,0c0.2,0,0.4,0,0.6,0.1l-0.1,0.8c-0.2-0.1-0.3-0.1-0.5-0.1
	c-0.4,0-0.7,0.3-0.7,0.7c0,0,0,0.1,0,0.1c0,0.4,0.3,0.7,0.6,0.7c0,0,0.1,0,0.1,0c0.2,0,0.4,0,0.5-0.1l0.1,0.7
	C163.1,22,162.8,22.1,162.5,22.1L162.5,22.1z M166.4,20.8h-1.8c0,0.4,0.3,0.6,0.8,0.6c0.3,0,0.6-0.1,0.9-0.2l0.1,0.7
	c-0.4,0.1-0.8,0.2-1.1,0.2c-1,0-1.6-0.5-1.6-1.5c-0.1-0.8,0.5-1.5,1.3-1.5c0.1,0,0.1,0,0.2,0c0.7-0.1,1.3,0.4,1.3,1.1
	c0,0.1,0,0.1,0,0.2C166.4,20.5,166.4,20.7,166.4,20.8L166.4,20.8z M165,19.7c-0.3,0-0.5,0.2-0.5,0.5h0.9
	C165.5,20,165.3,19.8,165,19.7C165.1,19.7,165.1,19.7,165,19.7L165,19.7z"/>
</svg>
