<?xml version="1.0" encoding="utf-8"?>
<!-- Generator: Adobe Illustrator 16.0.0, SVG Export Plug-In . SVG Version: 6.00 Build 0)  -->
<!DOCTYPE svg PUBLIC "-//W3C//DTD SVG 1.1//EN" "http://www.w3.org/Graphics/SVG/1.1/DTD/svg11.dtd">
<svg version="1.1" id="Layer_1" xmlns="http://www.w3.org/2000/svg" xmlns:xlink="http://www.w3.org/1999/xlink" x="0px" y="0px"
	 width="351px" height="33px" viewBox="0 0 351 33" enable-background="new 0 0 351 33" xml:space="preserve">
<path opacity="0.5" fill-rule="evenodd" clip-rule="evenodd" fill="#FFFFFF" d="M62.799805,16.859863h-8.05957v2.880371h5.179688
	v0.240234c0,5.599609-2.469727,8.399414-7.390137,8.399414c-2.429688,0-4.439941-1.080078-6.039551-3.259766
	c-1.610352-2.169922-2.410156-4.939453-2.410156-8.300293c0-3.359863,0.779785-6.119629,2.339844-8.259766
	c1.560059-2.149902,3.550293-3.220215,5.97998-3.220215c1.47998,0,2.72998,0.280273,3.75,0.830078
	c0.939941,0.52002,1.879883,1.390137,2.830078,2.620117l2.5-1.870117c-2.149902-2.969727-5.109863-4.459961-8.890137-4.459961
	c-3.339844,0-6.080078,1.370117-8.199707,4.089844c-2.130371,2.72998-3.189941,6.180176-3.189941,10.350098
	c0,4.149902,1.029785,7.580566,3.099609,10.289551c2.080078,2.720703,4.810059,4.070313,8.180176,4.070313
	c3.069824,0,5.540039-0.969727,7.370117-2.94043c1.969727-2.049805,2.949707-4.96875,2.949707-8.71875V16.859863z"/>
<path opacity="0.5" fill-rule="evenodd" clip-rule="evenodd" fill="#FFFFFF" d="M87.25,2.459961h-2.879883v16.839844
	c0,3.110352-0.560059,5.400391-1.660156,6.880859c-1.100098,1.459961-2.879883,2.199219-5.330078,2.199219
	c-4.949707,0-7.409668-3.040039-7.409668-9.149414V2.459961h-2.880371v16.850586c0,7.969727,3.360352,11.949219,10.110352,11.949219
	C83.890137,31.259766,87.25,27.25,87.25,19.230469V2.459961z"/>
<polygon opacity="0.5" fill-rule="evenodd" clip-rule="evenodd" fill="#FFFFFF" points="109.379883,28.379883 95.370117,28.379883 
	95.370117,2.459961 92.490234,2.459961 92.490234,31.259766 109.379883,31.259766 "/>
<polygon opacity="0.5" fill-rule="evenodd" clip-rule="evenodd" fill="#FFFFFF" points="130.430176,2.459961 114.060059,2.459961 
	114.060059,31.259766 116.939941,31.259766 116.939941,17.819824 124.810059,17.819824 124.810059,14.939941 116.939941,14.939941 
	116.939941,5.339844 130.430176,5.339844 "/>
<path opacity="0.5" fill-rule="evenodd" clip-rule="evenodd" fill="#FFFFFF" d="M147.540039,15.52002h-6.5V8.350098h6.410156
	c1.25,0,2.239746,0.290039,2.969727,0.859863s1.100098,1.470215,1.100098,2.689941
	C151.52002,14.319824,150.189941,15.52002,147.540039,15.52002z M156.5,7.899902
	c-0.509766-1.100098-1.200195-2.029785-2.080078-2.77002c-0.879883-0.739746-1.899902-1.290039-3.069824-1.649902
	s-2.399902-0.540039-3.689941-0.540039h-12.380371v27.879395h5.760254v-9.869141h6.129883
	c1.439941,0,2.77002-0.180664,4.010254-0.519531c1.22998-0.34082,2.299805-0.890625,3.199707-1.630859
	c0.899902-0.75,1.610352-1.699707,2.120117-2.859863c0.5-1.149902,0.759766-2.540039,0.759766-4.160156
	C157.259766,10.299805,157,9,156.5,7.899902z"/>
<path opacity="0.5" fill-rule="evenodd" clip-rule="evenodd" fill="#FFFFFF" d="M175.370117,19.299805H169l1.790039-5.029785
	c0.290039-0.819824,0.560059-1.620117,0.819824-2.379883c0.25-0.77002,0.439941-1.410156,0.570313-1.950195
	c0.139648,0.540039,0.32959,1.180176,0.57959,1.950195c0.260254,0.759766,0.530273,1.560059,0.820313,2.379883L175.370117,19.299805
	z M185.620117,30.819336L175.02002,2.97998h-5.419922l-10.680176,27.839355h5.970215l2.189941-6.239258h10.200195l2.189453,6.239258
	H185.620117z"/>
<path opacity="0.5" fill-rule="evenodd" clip-rule="evenodd" fill="#FFFFFF" d="M202.019531,15.459961h-7.289063V8.290039h7.289063
	c1.25,0,2.220703,0.279785,2.930664,0.819824C205.650391,9.660156,206,10.569824,206,11.839844
	C206,14.259766,204.680664,15.459961,202.019531,15.459961z M211.740234,30.819336l-5.339844-10.829102
	c1.780273-0.69043,3.109375-1.700195,4.009766-3.050293c0.879883-1.330078,1.330078-3.060059,1.330078-5.160156
	c0-1.47998-0.25-2.779785-0.759766-3.879883c-0.510742-1.100098-1.200195-2.029785-2.070313-2.77002
	c-0.870117-0.739746-1.890625-1.290039-3.060547-1.649902c-1.168945-0.359863-2.410156-0.540039-3.709961-0.540039h-13.169922
	v27.879395h5.760742V20.75h5.619141l4.980469,10.069336H211.740234z"/>
<polygon opacity="0.5" fill-rule="evenodd" clip-rule="evenodd" fill="#FFFFFF" points="235.830078,8.259766 235.830078,2.97998 
	214.049805,2.97998 214.049805,8.259766 222.060547,8.259766 222.060547,30.819336 227.819336,30.819336 227.819336,8.259766 "/>
<path opacity="0.5" fill-rule="evenodd" clip-rule="evenodd" fill="#FFFFFF" d="M263.779297,2.97998h-6.329102L253.5,9.589844
	l-0.850586,1.450195c-0.299805,0.52002-0.599609,1.029785-0.889648,1.529785l-0.80957,1.42041
	c-0.25,0.429688-0.430664,0.789551-0.570313,1.049805c-0.129883-0.260254-0.330078-0.620117-0.580078-1.049805
	c-0.239258-0.44043-0.509766-0.92041-0.799805-1.44043c-0.280273-0.509766-0.580078-1.029785-0.900391-1.549805
	c-0.30957-0.509766-0.599609-0.990234-0.839844-1.410156l-3.94043-6.609863h-6.419922l10.560547,16.950684v10.888672h5.759766
	V19.810547L263.779297,2.97998z"/>
<polygon opacity="0.5" fill-rule="evenodd" clip-rule="evenodd" fill="#FFFFFF" points="285.889648,30.819336 285.889648,25.540039 
	271.910156,25.540039 271.910156,2.97998 266.150391,2.97998 266.150391,30.819336 "/>
<rect x="289.639648" y="2.97998" opacity="0.5" fill-rule="evenodd" clip-rule="evenodd" fill="#FFFFFF" width="5.760742" height="27.839355"/>
<path opacity="0.5" fill-rule="evenodd" clip-rule="evenodd" fill="#FFFFFF" d="M324.160156,30.819336V2.97998h-5.759766v11.779785
	v1.470215V18v1.669922v1.169922c-0.180664-0.359375-0.460938-0.839844-0.831055-1.450195
	c-0.379883-0.589844-0.739258-1.159668-1.069336-1.689453L306.879883,2.97998h-5.759766v27.839355h5.759766v-12.25v-1.459473
	v-1.77002v-1.679688v-1.169922c0.180664,0.369629,0.469727,0.849609,0.860352,1.449707
	c0.389648,0.600098,0.75,1.160156,1.109375,1.689941l10.300781,15.189453H324.160156z"/>
<polygon opacity="0.5" fill-rule="evenodd" clip-rule="evenodd" fill="#FFFFFF" points="349.540039,30.819336 349.540039,25.540039 
	335.169922,25.540039 335.169922,18.689453 343.169922,18.689453 343.169922,13.169922 335.169922,13.169922 335.169922,8.259766 
	348.950195,8.259766 348.950195,2.97998 329.410156,2.97998 329.410156,30.819336 "/>
<path opacity="0.5" fill-rule="evenodd" clip-rule="evenodd" fill="#FFFFFF" d="M2.799805,5.029785
	c0-1.909668,0.660156-2.569824,2.570313-2.569824h23.659668c1.910156,0,2.570313,0.660156,2.570313,2.569824v23.659668
	c0,1.911133-0.660156,2.570313-2.570313,2.570313H5.370117c-1.910156,0-2.570313-0.65918-2.570313-2.570313V5.029785z
	 M10.47998,16.859863l6.720215,6.720215l6.719727-6.720215l-6.719727-6.719727L10.47998,16.859863z"/>
<rect x="14.824413" y="14.484081" transform="matrix(-0.707107 -0.707107 0.707107 -0.707107 17.440845 40.943962)" opacity="0.5" fill-rule="evenodd" clip-rule="evenodd" fill="#FFFFFF" width="4.751564" height="4.751564"/>
</svg>
